<mxfile host="app.diagrams.net" modified="2023-03-31T17:49:46.350Z" agent="Mozilla/5.0 (Windows NT 10.0; Win64; x64) AppleWebKit/537.36 (KHTML, like Gecko) Chrome/111.0.0.0 Safari/537.36" etag="kFdLtTqtK5nef8Iz4Vma" version="21.1.2" type="device">
  <diagram name="Página-1" id="I5gzmsh1O56uBOm5fipm">
    <mxGraphModel dx="880" dy="484" grid="1" gridSize="10" guides="1" tooltips="1" connect="1" arrows="1" fold="1" page="1" pageScale="1" pageWidth="1169" pageHeight="827" math="0" shadow="0">
      <root>
        <mxCell id="0" />
        <mxCell id="1" parent="0" />
        <mxCell id="oMWMog-R68RUEe1SR72e-19" style="edgeStyle=orthogonalEdgeStyle;rounded=0;orthogonalLoop=1;jettySize=auto;html=1;curved=1;" parent="1" source="oMWMog-R68RUEe1SR72e-1" target="oMWMog-R68RUEe1SR72e-11" edge="1">
          <mxGeometry relative="1" as="geometry" />
        </mxCell>
        <mxCell id="oMWMog-R68RUEe1SR72e-20" style="edgeStyle=orthogonalEdgeStyle;rounded=0;orthogonalLoop=1;jettySize=auto;html=1;entryX=0.5;entryY=1;entryDx=0;entryDy=0;curved=1;" parent="1" source="oMWMog-R68RUEe1SR72e-1" target="oMWMog-R68RUEe1SR72e-5" edge="1">
          <mxGeometry relative="1" as="geometry" />
        </mxCell>
        <mxCell id="oMWMog-R68RUEe1SR72e-21" style="edgeStyle=orthogonalEdgeStyle;rounded=0;orthogonalLoop=1;jettySize=auto;html=1;entryX=1;entryY=0.5;entryDx=0;entryDy=0;curved=1;" parent="1" source="oMWMog-R68RUEe1SR72e-1" target="oMWMog-R68RUEe1SR72e-7" edge="1">
          <mxGeometry relative="1" as="geometry" />
        </mxCell>
        <mxCell id="oMWMog-R68RUEe1SR72e-30" style="edgeStyle=orthogonalEdgeStyle;rounded=0;orthogonalLoop=1;jettySize=auto;html=1;entryX=0;entryY=0.5;entryDx=0;entryDy=0;" parent="1" source="oMWMog-R68RUEe1SR72e-1" target="oMWMog-R68RUEe1SR72e-29" edge="1">
          <mxGeometry relative="1" as="geometry" />
        </mxCell>
        <mxCell id="oMWMog-R68RUEe1SR72e-1" value="Clientes" style="whiteSpace=wrap;html=1;align=center;" parent="1" vertex="1">
          <mxGeometry x="345" y="380" width="100" height="40" as="geometry" />
        </mxCell>
        <mxCell id="oMWMog-R68RUEe1SR72e-22" style="edgeStyle=orthogonalEdgeStyle;rounded=0;orthogonalLoop=1;jettySize=auto;html=1;entryX=0;entryY=0.5;entryDx=0;entryDy=0;curved=1;" parent="1" source="oMWMog-R68RUEe1SR72e-2" target="oMWMog-R68RUEe1SR72e-9" edge="1">
          <mxGeometry relative="1" as="geometry" />
        </mxCell>
        <mxCell id="oMWMog-R68RUEe1SR72e-23" style="edgeStyle=orthogonalEdgeStyle;rounded=0;orthogonalLoop=1;jettySize=auto;html=1;entryX=0.5;entryY=1;entryDx=0;entryDy=0;curved=1;" parent="1" source="oMWMog-R68RUEe1SR72e-2" target="oMWMog-R68RUEe1SR72e-8" edge="1">
          <mxGeometry relative="1" as="geometry" />
        </mxCell>
        <mxCell id="oMWMog-R68RUEe1SR72e-24" style="edgeStyle=orthogonalEdgeStyle;rounded=0;orthogonalLoop=1;jettySize=auto;html=1;entryX=-0.005;entryY=0.362;entryDx=0;entryDy=0;entryPerimeter=0;curved=1;" parent="1" source="oMWMog-R68RUEe1SR72e-2" target="oMWMog-R68RUEe1SR72e-16" edge="1">
          <mxGeometry relative="1" as="geometry" />
        </mxCell>
        <mxCell id="oMWMog-R68RUEe1SR72e-34" style="edgeStyle=orthogonalEdgeStyle;rounded=0;orthogonalLoop=1;jettySize=auto;html=1;entryX=0.5;entryY=0;entryDx=0;entryDy=0;" parent="1" source="oMWMog-R68RUEe1SR72e-2" target="oMWMog-R68RUEe1SR72e-32" edge="1">
          <mxGeometry relative="1" as="geometry" />
        </mxCell>
        <mxCell id="oMWMog-R68RUEe1SR72e-2" value="Produto" style="whiteSpace=wrap;html=1;align=center;" parent="1" vertex="1">
          <mxGeometry x="715" y="380" width="100" height="40" as="geometry" />
        </mxCell>
        <mxCell id="oMWMog-R68RUEe1SR72e-25" style="edgeStyle=orthogonalEdgeStyle;rounded=0;orthogonalLoop=1;jettySize=auto;html=1;entryX=0;entryY=0.5;entryDx=0;entryDy=0;curved=1;" parent="1" source="oMWMog-R68RUEe1SR72e-3" target="oMWMog-R68RUEe1SR72e-15" edge="1">
          <mxGeometry relative="1" as="geometry" />
        </mxCell>
        <mxCell id="oMWMog-R68RUEe1SR72e-26" style="edgeStyle=orthogonalEdgeStyle;rounded=0;orthogonalLoop=1;jettySize=auto;html=1;entryX=0.5;entryY=0;entryDx=0;entryDy=0;curved=1;" parent="1" source="oMWMog-R68RUEe1SR72e-3" target="oMWMog-R68RUEe1SR72e-13" edge="1">
          <mxGeometry relative="1" as="geometry" />
        </mxCell>
        <mxCell id="oMWMog-R68RUEe1SR72e-27" style="edgeStyle=orthogonalEdgeStyle;rounded=0;orthogonalLoop=1;jettySize=auto;html=1;entryX=0.5;entryY=0;entryDx=0;entryDy=0;curved=1;" parent="1" source="oMWMog-R68RUEe1SR72e-3" target="oMWMog-R68RUEe1SR72e-17" edge="1">
          <mxGeometry relative="1" as="geometry" />
        </mxCell>
        <mxCell id="oMWMog-R68RUEe1SR72e-28" style="edgeStyle=orthogonalEdgeStyle;rounded=0;orthogonalLoop=1;jettySize=auto;html=1;exitX=0;exitY=0.5;exitDx=0;exitDy=0;curved=1;" parent="1" source="oMWMog-R68RUEe1SR72e-3" target="oMWMog-R68RUEe1SR72e-18" edge="1">
          <mxGeometry relative="1" as="geometry" />
        </mxCell>
        <mxCell id="oMWMog-R68RUEe1SR72e-3" value="Fabricantes" style="whiteSpace=wrap;html=1;align=center;" parent="1" vertex="1">
          <mxGeometry x="715" y="596" width="100" height="40" as="geometry" />
        </mxCell>
        <mxCell id="oMWMog-R68RUEe1SR72e-5" value="Nome" style="ellipse;whiteSpace=wrap;html=1;align=center;" parent="1" vertex="1">
          <mxGeometry x="345" y="290" width="100" height="40" as="geometry" />
        </mxCell>
        <mxCell id="oMWMog-R68RUEe1SR72e-7" value="Endereço" style="ellipse;whiteSpace=wrap;html=1;align=center;" parent="1" vertex="1">
          <mxGeometry x="185" y="290" width="100" height="40" as="geometry" />
        </mxCell>
        <mxCell id="oMWMog-R68RUEe1SR72e-8" value="Nome" style="ellipse;whiteSpace=wrap;html=1;align=center;" parent="1" vertex="1">
          <mxGeometry x="715" y="290" width="100" height="40" as="geometry" />
        </mxCell>
        <mxCell id="oMWMog-R68RUEe1SR72e-9" value="Preço" style="ellipse;whiteSpace=wrap;html=1;align=center;" parent="1" vertex="1">
          <mxGeometry x="885" y="380" width="100" height="40" as="geometry" />
        </mxCell>
        <mxCell id="oMWMog-R68RUEe1SR72e-11" value="CPF" style="ellipse;whiteSpace=wrap;html=1;align=center;fontStyle=4;" parent="1" vertex="1">
          <mxGeometry x="185" y="380" width="100" height="40" as="geometry" />
        </mxCell>
        <mxCell id="oMWMog-R68RUEe1SR72e-13" value="CNPJ" style="ellipse;whiteSpace=wrap;html=1;align=center;fontStyle=4;" parent="1" vertex="1">
          <mxGeometry x="775" y="692" width="100" height="40" as="geometry" />
        </mxCell>
        <mxCell id="oMWMog-R68RUEe1SR72e-15" value="Endereço" style="ellipse;whiteSpace=wrap;html=1;align=center;" parent="1" vertex="1">
          <mxGeometry x="865" y="596" width="100" height="40" as="geometry" />
        </mxCell>
        <mxCell id="oMWMog-R68RUEe1SR72e-16" value="Marca" style="ellipse;whiteSpace=wrap;html=1;align=center;fontStyle=4;" parent="1" vertex="1">
          <mxGeometry x="885" y="290" width="100" height="40" as="geometry" />
        </mxCell>
        <mxCell id="oMWMog-R68RUEe1SR72e-17" value="Nome" style="ellipse;whiteSpace=wrap;html=1;align=center;" parent="1" vertex="1">
          <mxGeometry x="655" y="692" width="100" height="40" as="geometry" />
        </mxCell>
        <mxCell id="oMWMog-R68RUEe1SR72e-18" value="Local" style="ellipse;whiteSpace=wrap;html=1;align=center;" parent="1" vertex="1">
          <mxGeometry x="555" y="596" width="100" height="40" as="geometry" />
        </mxCell>
        <mxCell id="oMWMog-R68RUEe1SR72e-31" style="edgeStyle=orthogonalEdgeStyle;rounded=0;orthogonalLoop=1;jettySize=auto;html=1;" parent="1" source="oMWMog-R68RUEe1SR72e-29" target="oMWMog-R68RUEe1SR72e-2" edge="1">
          <mxGeometry relative="1" as="geometry" />
        </mxCell>
        <mxCell id="oMWMog-R68RUEe1SR72e-29" value="Compra" style="shape=rhombus;perimeter=rhombusPerimeter;whiteSpace=wrap;html=1;align=center;" parent="1" vertex="1">
          <mxGeometry x="525" y="370" width="120" height="60" as="geometry" />
        </mxCell>
        <mxCell id="oMWMog-R68RUEe1SR72e-35" style="edgeStyle=orthogonalEdgeStyle;rounded=0;orthogonalLoop=1;jettySize=auto;html=1;exitX=0.5;exitY=1;exitDx=0;exitDy=0;" parent="1" source="oMWMog-R68RUEe1SR72e-32" target="oMWMog-R68RUEe1SR72e-3" edge="1">
          <mxGeometry relative="1" as="geometry" />
        </mxCell>
        <mxCell id="oMWMog-R68RUEe1SR72e-32" value="Fabrica" style="shape=rhombus;perimeter=rhombusPerimeter;whiteSpace=wrap;html=1;align=center;" parent="1" vertex="1">
          <mxGeometry x="705" y="476" width="120" height="60" as="geometry" />
        </mxCell>
        <mxCell id="PyInc0UrzAmd-lirJnu9-1" value="" style="rounded=1;whiteSpace=wrap;html=1;fontSize=36;" vertex="1" parent="1">
          <mxGeometry x="295" y="90" width="580" height="80" as="geometry" />
        </mxCell>
        <mxCell id="PyInc0UrzAmd-lirJnu9-2" value="&lt;span style=&quot;font-size: 36px;&quot;&gt;&lt;b&gt;Diagrama - Exercício 8, Slide 2&lt;/b&gt;&lt;/span&gt;" style="text;html=1;strokeColor=none;fillColor=none;align=center;verticalAlign=middle;whiteSpace=wrap;rounded=0;" vertex="1" parent="1">
          <mxGeometry x="299" y="70" width="576" height="120" as="geometry" />
        </mxCell>
        <mxCell id="PyInc0UrzAmd-lirJnu9-3" value="&lt;font color=&quot;#ff0000&quot;&gt;N&lt;/font&gt;" style="text;html=1;strokeColor=none;fillColor=none;align=center;verticalAlign=middle;whiteSpace=wrap;rounded=0;" vertex="1" parent="1">
          <mxGeometry x="450" y="370" width="60" height="30" as="geometry" />
        </mxCell>
        <mxCell id="PyInc0UrzAmd-lirJnu9-4" value="&lt;font color=&quot;#ff0000&quot;&gt;N&lt;/font&gt;" style="text;html=1;strokeColor=none;fillColor=none;align=center;verticalAlign=middle;whiteSpace=wrap;rounded=0;" vertex="1" parent="1">
          <mxGeometry x="655" y="370" width="60" height="30" as="geometry" />
        </mxCell>
        <mxCell id="PyInc0UrzAmd-lirJnu9-5" value="&lt;font color=&quot;#ff0000&quot;&gt;N&lt;/font&gt;" style="text;html=1;strokeColor=none;fillColor=none;align=center;verticalAlign=middle;whiteSpace=wrap;rounded=0;" vertex="1" parent="1">
          <mxGeometry x="705" y="420" width="60" height="30" as="geometry" />
        </mxCell>
        <mxCell id="PyInc0UrzAmd-lirJnu9-6" value="&lt;font color=&quot;#ff0000&quot;&gt;1&lt;/font&gt;" style="text;html=1;strokeColor=none;fillColor=none;align=center;verticalAlign=middle;whiteSpace=wrap;rounded=0;" vertex="1" parent="1">
          <mxGeometry x="705" y="566" width="60" height="30" as="geometry" />
        </mxCell>
      </root>
    </mxGraphModel>
  </diagram>
</mxfile>
